<?xml version="1.0" encoding="UTF-8" standalone="no"?>
<!-- Created with Inkscape (http://www.inkscape.org/) -->

<svg
   width="1000"
   height="1000"
   viewBox="0 0 264.58332 264.58332"
   version="1.1"
   id="svg1"
   xml:space="preserve"
   xmlns="http://www.w3.org/2000/svg"
   xmlns:svg="http://www.w3.org/2000/svg"><defs
     id="defs1"><clipPath
       clipPathUnits="userSpaceOnUse"
       id="clipPath3"><rect
         style="fill:#000000"
         id="rect4"
         width="229.67038"
         height="321.66544"
         x="442.21066"
         y="172.57001" /></clipPath></defs><g
     id="g76"
     transform="matrix(0.9353814,0,0,0.93538491,34.076772,-6.6131834)"><path
       id="circle23"
       style="fill:#000000;stroke-width:0.190955"
       d="m 99.000353,79.700214 -1.761807,9.54267 a 59.76305,59.76305 0 0 0 -15.145241,4.058384 l -6.296981,-7.384203 -10.392395,6.000286 3.246276,9.145449 a 59.76305,59.76305 0 0 0 -11.087394,11.0868 l -9.144932,-3.24571 -6.000309,10.39236 7.383678,6.29695 a 59.76305,59.76305 0 0 0 -4.058399,15.14574 l -9.543258,1.7607 v 12.00057 l 9.543258,1.76125 a 59.76305,59.76305 0 0 0 4.058399,15.14518 l -7.383678,6.29751 5.999756,10.3918 9.145485,-3.24571 a 59.76305,59.76305 0 0 0 11.087394,11.08735 l -3.246276,9.1449 10.392395,6.00029 6.296981,-7.3842 a 59.76305,59.76305 0 0 0 15.145241,4.05838 l 1.761807,9.54322 h 11.999517 l 1.7618,-9.54322 a 59.76305,59.76305 0 0 0 15.14524,-4.05838 l 6.29698,7.3842 10.3924,-6.00029 -3.24628,-9.1449 a 59.76305,59.76305 0 0 0 11.0874,-11.08735 l 9.14493,3.24571 6.00031,-10.3918 -7.38368,-6.29751 a 59.76305,59.76305 0 0 0 4.0584,-15.14518 l 9.5427,-1.76125 v -12.00057 l -9.5427,-1.7607 a 59.76305,59.76305 0 0 0 -4.0584,-15.14629 l 7.38368,-6.2964 -6.00031,-10.39236 -9.14493,3.24571 a 59.76305,59.76305 0 0 0 -11.0874,-11.0868 l 3.24628,-9.145449 -10.3924,-6.000286 -6.29698,7.384203 a 59.76305,59.76305 0 0 0 -15.14524,-4.058384 l -1.7618,-9.54267 z m 5.999757,14.349087 a 54.450787,54.450787 0 0 1 54.45082,54.450619 54.450787,54.450787 0 0 1 -54.45082,54.45062 54.450787,54.450787 0 0 1 -54.450826,-54.45062 54.450787,54.450787 0 0 1 54.450826,-54.450619 z" /><path
       id="circle24"
       style="fill:#000000;stroke-width:0.166276"
       d="m 105.00011,96.461348 a 52.038757,52.038757 0 0 0 -52.03877,52.038572 52.038757,52.038757 0 0 0 52.03877,52.03857 52.038757,52.038757 0 0 0 52.03877,-52.03857 52.038757,52.038757 0 0 0 -52.03877,-52.038572 z m 0,2.926942 a 49.111626,49.111626 0 0 1 49.11126,49.11163 49.111626,49.111626 0 0 1 -49.11126,49.11163 49.111626,49.111626 0 0 1 -49.111817,-49.11163 49.111626,49.111626 0 0 1 49.111817,-49.11163 z" /><path
       id="path3"
       clip-path="url(#clipPath3)"
       style="fill:#000000"
       d="m 556.1416,56.235513 c -3.025,0.03958 -10.26175,0.139924 -16.08244,0.223224 l -10.58245,0.150883 -2.2033,10.249683 c -1.21193,5.6375 -3.44448,15.164523 -4.96052,21.171103 l -2.75723,10.921421 -10.45637,1.767183 c -5.75136,0.9725 -16.68872,3.36969 -24.30657,5.32637 -7.61786,1.95668 -14.22162,3.32957 -14.67281,3.05072 -0.45119,-0.27885 -6.56987,-7.47622 -13.59804,-15.995624 -7.02817,-8.5194 -13.17687,-15.491304 -13.66418,-15.491304 -2.34731,0 -26.05836,13.215561 -44.64885,24.885298 -1.19894,0.75261 -0.48651,4.06121 4.33839,20.14179 l 5.77281,19.24064 -6.83932,6.01257 c -3.76113,3.30681 -12.06329,11.41591 -18.44902,18.02117 l -11.60969,12.0086 -19.27164,-8.30681 -19.26957,-8.30681 -1.70931,2.26737 c -2.73787,3.62968 -17.32436,26.79636 -22.46084,35.67444 l -4.70836,8.13732 14.17056,13.8626 c 7.79302,7.62439 14.57387,14.11494 15.06966,14.42272 0.49578,0.30778 -0.46394,4.58219 -2.13303,9.49941 -1.66908,4.91722 -5.09181,15.91591 -7.60613,24.44091 -2.51433,8.525 -4.6464,15.58265 -4.7373,15.6856 -0.0909,0.10295 -8.91175,1.57054 -19.60234,3.25947 -10.69059,1.68892 -19.74774,3.40321 -20.12733,3.81134 -1.19651,1.28648 -2.89364,23.29052 -2.89364,37.51396 v 13.66418 l 8.24894,2.48853 c 4.5375,1.36882 13.20097,3.70215 19.25097,5.18375 6.05,1.48159 11.07481,2.73756 11.16531,2.79236 0.0905,0.0548 1.32277,6.62548 2.73862,14.60048 1.41585,7.975 3.62345,18.69288 4.90679,23.81878 l 2.33351,9.31958 -14.32144,13.82953 c -7.87716,7.60584 -14.32999,14.21283 -14.33799,14.68109 -0.008,0.46826 5.04454,10.88462 11.22939,23.14911 l 11.24592,22.29962 3.51991,-0.60146 c 1.93607,-0.33134 10.49447,-2.32968 19.01947,-4.43967 l 15.49957,-3.83614 2.00075,2.63115 c 6.73224,8.85453 14.52403,18.00293 22.58279,26.51813 l 9.2121,9.73503 -3.832,9.69783 c -2.10851,5.33343 -5.32061,13.07148 -7.13696,17.19648 l -3.30288,7.50073 3.23881,2.84403 c 10.18675,8.94791 38.12752,28.65529 40.62669,28.65529 0.59483,0 7.00211,-5.75396 14.23877,-12.78781 l 13.15779,-12.78989 12.10782,4.86338 c 6.65918,2.67409 17.50608,6.47363 24.10608,8.44323 6.6,1.9696 12.07452,3.62222 12.16362,3.67492 0.0891,0.0527 1.14178,8.19537 2.33971,18.09351 1.19792,9.89813 2.62418,18.27253 3.1706,18.61023 1.29907,0.80288 22.24122,3.01453 36.82776,3.88988 6.325,0.37957 12.50075,0.76162 13.72412,0.84742 1.50735,0.10577 2.6789,-0.73036 3.63772,-2.59394 1.84197,-3.58009 9.63788,-26.85156 9.63788,-28.77104 0,-0.81313 0.45037,-1.47989 1.00037,-1.47989 0.55,0 0.99831,2.04057 0.99831,4.53475 0,3.09251 1.48481,8.18124 4.66496,15.99976 5.35265,13.15973 3.59514,12.23189 19.83589,10.47497 17.91239,-1.93777 17.22649,-1.73417 17.88889,-5.30569 0.61917,-3.33848 3.61085,-30.90413 3.61085,-33.27065 0,-0.74968 1.89752,-1.86076 4.24952,-2.48647 8.62734,-2.29517 27.69764,-8.96516 35.73851,-12.50052 l 8.28407,-3.64185 11.11364,10.88009 c 6.11285,5.98417 12.32909,11.93498 13.813,13.22393 l 2.69728,2.34384 4.80138,-2.77582 c 11.82187,-6.83332 39.30388,-27.55157 39.30388,-29.63087 0,-1.14179 -10.33085,-26.68975 -12.35377,-30.55063 -1.3805,-2.63477 -1.22421,-2.87846 9.09223,-14.2367 5.77321,-6.35623 13.40553,-15.20337 16.96086,-19.65814 l 6.46315,-8.09806 18.39527,4.57195 c 18.11738,4.50335 18.41715,4.54315 19.8545,2.60014 3.02007,-4.08254 11.10035,-19.31333 16.6715,-31.42285 l 5.77487,-12.55013 -3.22227,-3.00112 c -1.77207,-1.65 -8.3773,-7.68223 -14.67902,-13.40581 -6.30172,-5.72357 -11.37449,-10.69924 -11.27279,-11.05577 1.19622,-4.19358 6.41971,-31.70612 7.36431,-38.78717 l 1.23393,-9.24931 3.60879,-0.93423 c 1.98441,-0.51329 9.90779,-2.58491 17.60779,-4.60295 7.7,-2.01804 14.94741,-3.88672 16.10517,-4.15444 1.89989,-0.43933 2.1651,-1.40975 2.72622,-9.95205 0.64647,-9.84152 -0.96248,-41.31965 -2.17643,-42.57784 -0.38196,-0.39587 -6.97369,-1.87928 -14.64802,-3.29668 -7.67432,-1.41739 -16.3853,-3.1186 -19.35844,-3.78033 l -5.40697,-1.20293 -5.83275,-18.50069 c -3.20875,-10.175 -6.72155,-20.74841 -7.80456,-23.49841 l -1.96767,-4.9998 14.94357,-15.02418 14.94358,-15.02419 -7.82729,-12.97591 c -6.41493,-10.63681 -18.26345,-28.40574 -21.1711,-31.74942 -0.74233,-0.85366 -1.85176,-0.43463 -23.66584,8.92274 l -15.142,6.49416 -13.39548,-13.32108 c -7.36768,-7.32722 -15.7409,-15.10364 -18.60817,-17.27916 -2.86727,-2.17552 -5.21475,-4.51381 -5.21475,-5.19614 0,-0.68233 2.64531,-9.84669 5.87822,-20.36709 l 5.87822,-19.12902 -4.62775,-2.930845 c -2.54541,-1.61159 -13.05064,-7.194211 -23.34547,-12.407511 l -18.71771,-9.478735 -5.86169,6.810386 c -3.22377,3.74563 -9.37162,11.173864 -13.66211,16.508215 -6.59468,8.19912 -8.12896,9.59371 -9.92104,9.01782 -8.21611,-2.64026 -21.11006,-5.90619 -32.61958,-8.26341 l -13.5009,-2.765493 -2.21363,-8.366751 c -1.21775,-4.60193 -3.45978,-14.129033 -4.9812,-21.171103 l -2.76549,-12.804353 -9.52007,-0.223224 c -5.23583,-0.12284 -11.99505,-0.190483 -15.02005,-0.150883 z m -2.36865,78.374217 c 53.60783,0 103.35834,20.09436 142.27403,57.46767 31.13472,29.90073 50.77747,67.83944 57.74877,111.53325 2.48935,15.60239 2.25572,44.92582 -0.47745,59.99961 -8.52489,47.01598 -31.32382,87.28061 -66.67565,117.75251 -31.86291,27.46458 -70.46511,44.57477 -110.99999,49.2022 -10.43374,1.19111 -31.66535,1.16195 -42.49929,-0.0599 -84.16375,-9.49224 -156.10106,-73.85512 -174.37276,-156.01262 -3.71477,-16.7032 -4.96606,-31.00614 -4.32186,-49.38202 1.03911,-29.64071 7.01533,-53.13751 20.34228,-79.98018 33.3255,-67.12305 103.60483,-110.52048 178.98192,-110.52048 z m 1.24219,39.91568 c -96.0275,0.0666 -103.46246,0.19224 -104.62365,1.76926 -0.82433,1.11953 -1.2484,5.50582 -1.2484,12.88289 0,11.89048 0.38889,12.94782 4.99979,13.58564 l 2.49887,0.34723 0.58493,24.49879 c 0.64755,27.12446 1.35522,30.96955 8.42669,45.86005 7.36856,15.51611 14.12678,23.35797 43.23923,50.1695 7.72294,7.11254 9.24931,9.01502 9.24931,11.52288 0,4.26744 -1.51319,6.02662 -15.25567,17.73801 -22.98443,19.58743 -34.35017,33.4588 -40.24019,49.10713 -4.62091,12.27664 -5.50412,19.03345 -5.50412,42.16858 0,21.33152 -0.009,21.4336 -2.17022,21.4336 -4.73224,0 -5.82862,2.50796 -5.82862,13.32728 0,7.91693 0.3454,10.39987 1.65351,11.84532 h 0.002 c 1.58286,1.74904 6.13173,1.82712 104.3777,1.82712 90.74108,0 102.86937,-0.17698 103.98499,-1.52122 0.73505,-0.88568 1.43582,-5.37881 1.67624,-10.74987 0.47796,-10.6781 -0.67391,-14.04629 -4.96879,-14.54467 l -2.72622,-0.31624 -0.008,-19.18276 c -0.008,-20.60905 -0.85376,-28.46849 -4.16477,-38.68382 -6.32403,-19.51124 -16.07918,-31.97941 -43.48726,-55.57854 -14.51072,-12.49414 -16.10444,-15.04024 -12.67414,-20.25341 1.00885,-1.53319 9.34993,-9.6391 18.53582,-18.0129 18.40258,-16.77571 26.53941,-26.58416 32.74566,-39.4713 7.39444,-15.35438 8.27778,-20.11769 8.79667,-47.43502 l 0.46091,-24.24869 h 2.24257 c 1.23334,0 3.02914,-0.86768 3.98909,-1.92841 1.48748,-1.6437 1.6935,-3.55773 1.40341,-12.95316 -0.19746,-6.39557 -0.81296,-11.49611 -1.46748,-12.14916 -0.82246,-0.82061 -29.14129,-1.10641 -104.49965,-1.05411 z m -79.06248,28.08484 h 79.21543 79.21544 l -0.50432,21.74983 c -0.56824,24.49891 -1.37951,28.89298 -7.74048,41.88956 -5.6252,11.49329 -12.74773,20.09825 -28.28946,34.17388 -20.11024,18.21319 -26.1534,24.9291 -27.60118,30.67877 -2.74221,10.8903 1.70038,17.77031 22.89488,35.46362 11.25512,9.39585 24.71351,22.90293 28.43621,28.53955 10.28308,15.56985 11.86943,22.12723 11.9776,49.50396 l 0.0847,21.49974 -78.74832,0.25629 -78.75039,0.2563 0.0165,-20.25548 c 0.0194,-22.64746 1.12035,-30.17897 5.90303,-40.39933 5.97828,-12.77527 14.34794,-22.46258 33.53728,-38.82024 21.50839,-18.3345 25.27464,-23.56224 24.2983,-33.7233 -0.68129,-7.09026 -3.66493,-10.76071 -24.23423,-29.80034 -24.27586,-22.47054 -30.71693,-30.94993 -36.33791,-47.84633 -2.36623,-7.11277 -2.57978,-9.30987 -2.96184,-30.41628 z m 15.68972,50.5002 0.13228,3.1148 c 0.15146,3.5542 5.83159,13.04014 11.22112,18.74251 3.15555,3.33871 22.20665,21.14954 45.39086,42.43315 l 6.85379,6.2916 8.2014,-7.67434 c 4.51056,-4.22058 15.92952,-14.8406 25.37515,-23.5997 9.44562,-8.7591 18.94914,-18.27798 21.11943,-21.1525 5.17832,-6.85863 8.39994,-13.2829 8.01538,-15.98322 l -0.31003,-2.1723 H 554.6431 Z m 63.68486,141.50102 c -3.56513,-0.002 -12.98666,5.48243 -29.50271,17.17582 -30.46488,21.56918 -34.47246,24.57321 -36.10435,27.06379 -0.86533,1.32067 -1.86107,5.80801 -2.21364,9.97892 -0.58226,6.88813 -0.46771,7.62309 1.2484,8.06292 2.83577,0.72683 127.65006,0.81326 131.26167,0.0909 2.90365,-0.58073 3.12223,-0.91689 3.08173,-4.7497 -0.0724,-6.85833 -1.5807,-12.59533 -3.98289,-15.15234 -1.25141,-1.33206 -8.39406,-6.66261 -15.87368,-11.84531 -7.47962,-5.18269 -18.32488,-12.90091 -24.09988,-17.15308 -9.85414,-7.25567 -20.83981,-13.46996 -23.81465,-13.47196 z m -24.9659,257.65376 c -10.0776,-0.0447 -15.23392,1.21255 -21.08843,5.14448 -5.12121,3.43945 -8.38289,8.09225 -10.69406,15.25361 -1.44462,4.47626 -1.83508,10.27814 -2.1909,32.59064 -0.46284,29.02274 0.29956,38.10258 3.89814,46.46771 3.61038,8.39255 11.61188,14.08553 22.85562,16.26226 1.375,0.26619 6.1193,0.31914 10.54318,0.11781 9.34915,-0.42548 17.52653,-3.13852 23.74024,-7.8769 l 4.21645,-3.21607 0.26663,-26.19984 0.26662,-26.19983 h -16.01629 -16.01629 v 8.50109 8.49903 h 6.0291 6.03117 l -0.28109,12.73822 -0.27903,12.73821 -2.86677,1.37241 c -4.3149,2.06553 -9.95986,2.5287 -14.11476,1.15746 -2.87683,-0.94945 -4.13915,-2.15938 -5.59506,-5.36564 -1.69622,-3.73551 -1.88173,-6.90697 -1.90153,-32.44802 -0.0137,-17.68746 0.39837,-29.9795 1.09958,-32.76427 1.50614,-5.9814 5.6144,-9.42706 11.23352,-9.42706 7.4596,0 11.64483,5.23142 11.64483,14.555 v 4.61949 l 4.24952,-0.65933 c 2.3375,-0.36309 7.09799,-1.131 10.57831,-1.70518 l 6.32881,-1.04378 -0.69241,-5.13414 c -1.67941,-12.45288 -6.67393,-20.13487 -16.1093,-24.77989 -5.68376,-2.79811 -7.41506,-3.16327 -15.1358,-3.19747 z m 190.78176,0.006 c -9.35036,0.0635 -14.48669,1.46126 -20.57378,5.60126 -5.8567,3.98331 -9.94289,10.95419 -11.93626,20.36295 -2.01056,9.49007 -2.04504,54.09084 -0.0496,63.50505 3.10027,14.6266 9.27699,21.87959 21.57208,25.32761 6.67051,1.87067 19.42046,1.42489 26.04275,-0.90943 10.34903,-3.64798 16.97683,-13.42118 18.90166,-27.87195 1.32027,-9.91356 1.3218,-46.96665 0.002,-56.09733 -2.89351,-20.01906 -14.28097,-30.05178 -33.95892,-29.91816 z m 229.93063,0.008 c -12.43632,0.12515 -20.43817,4.73386 -25.74719,14.8299 -2.3471,4.46342 -2.63145,6.12638 -2.65595,15.49957 -0.0249,9.51168 0.23588,11.03814 2.7779,16.21471 3.60118,7.33343 8.87791,11.91034 21.94618,19.03395 5.79125,3.15685 11.90698,7.30791 13.58977,9.22451 5.34189,6.08407 5.41446,15.42386 0.16122,20.67711 -2.29063,2.29062 -3.73332,2.85024 -7.36018,2.85024 -9.12872,0 -12.56554,-3.27926 -13.5505,-12.93043 l -0.59319,-5.79968 -10.07813,2.40998 -10.07814,2.40793 0.79369,5.79761 c 0.43603,3.1883 1.28797,7.1041 1.89533,8.70158 2.76805,7.28053 10.02621,13.49418 18.64537,15.96463 2.89631,0.83015 8.21766,1.26846 13.32314,1.09751 13.54998,-0.4537 21.38291,-4.87301 26.84264,-15.1482 2.38953,-4.49709 2.65595,-6.05777 2.65595,-15.50164 0,-9.4706 -0.27207,-11.05767 -2.79236,-16.18991 -3.63988,-7.41212 -10.94067,-13.97802 -22.78328,-20.49316 -12.85431,-7.07171 -16.92365,-11.69627 -16.92365,-19.23237 0,-7.68953 4.26468,-12.08301 11.7275,-12.08301 6.74006,0 11.27279,5.41486 11.27279,13.46782 0,1.94266 0.46561,3.53231 1.03551,3.53231 0.93462,0 18.17269,-4.1021 18.67431,-4.4438 0.54785,-0.3732 -3.09491,-12.39127 -4.72283,-15.58225 -4.6763,-9.1663 -15.01207,-14.43618 -28.0559,-14.30491 z m -707.93088,0.0393 c -17.35039,0.08 -27.17259,7.12403 -31.78249,22.79154 -2.00454,6.81276 -2.87408,49.97309 -1.25253,62.19051 2.35882,17.77234 9.30684,26.62061 23.78158,30.2902 6.1828,1.56744 20.33706,0.46841 26.14403,-2.02968 5.91299,-2.5437 11.44252,-8.23138 14.15403,-14.55708 3.4813,-8.12156 4.14483,-15.96323 3.72659,-44.04738 -0.36648,-24.60859 -0.58895,-27.42333 -2.67248,-33.75017 -1.79792,-5.45957 -3.35887,-7.98869 -7.46766,-12.09748 -6.65095,-6.65095 -12.80082,-8.84496 -24.63107,-8.79046 z m -113.99698,1.05618 1.53363,3.66665 c 1.32238,3.16495 1.49382,10.6906 1.2484,54.86753 -0.15645,28.15983 -0.68724,52.02906 -1.17812,53.04247 -0.85691,1.76907 0.0809,1.82783 23.50048,1.47989 24.19158,-0.35941 24.43344,-0.38353 29.51099,-3.04245 5.86035,-3.06884 9.79999,-7.32132 12.76301,-13.77992 1.63988,-3.57449 2.06999,-6.5559 2.09169,-14.4992 0.0253,-9.24549 -0.19842,-10.40579 -2.94531,-15.36523 -1.63409,-2.95029 -4.39009,-6.32924 -6.12625,-7.50899 l -3.1582,-2.14543 3.31735,-3.83613 c 4.78929,-5.5404 6.44158,-11.33805 6.43008,-22.57246 -0.0116,-11.39513 -2.40863,-17.79803 -8.5569,-22.86595 -6.92153,-5.70532 -10.57534,-6.41733 -35.68271,-6.95506 z m 159.80949,0.0145 1.34348,2.36038 c 1.84563,3.2407 1.97915,102.63356 0.14468,107.6103 l -1.19673,3.24915 h 12.92217 12.92423 l -0.98797,-2.59601 c -0.54274,-1.42751 -1.13589,-11.55262 -1.31867,-22.50011 l -0.33277,-19.90411 h 5.14448 5.14241 l 6.86825,22.50012 6.87033,22.50011 h 11.79778 11.79778 l -1.82919,-3.24915 c -1.00585,-1.7875 -5.09421,-12.55511 -9.08603,-23.92626 l -7.2589,-20.67505 3.68526,-3.23467 c 5.24285,-4.60329 8.44365,-11.55949 9.61515,-20.90241 1.06077,-8.45977 0.0424,-18.44072 -2.50094,-24.52773 -2.17025,-5.19412 -8.1356,-11.05101 -13.81506,-13.5629 -4.85495,-2.14723 -6.89107,-2.34939 -27.58671,-2.73035 z m 478.16353,0.0269 1.01071,2.66214 c 1.29966,3.41832 1.37627,102.77735 0.0827,107.28787 l -0.9301,3.24295 h 12.53773 c 11.57879,0 12.47587,-0.13443 11.73577,-1.75065 -0.44075,-0.9625 -0.9785,-11.08762 -1.19466,-22.50012 l -0.3927,-20.74946 h 4.58641 c 2.52306,0 4.92627,0.0754 5.33877,0.16742 0.4125,0.092 2.15254,4.92936 3.86921,10.74987 1.71668,5.82051 4.77986,15.8702 6.80625,22.3327 l 3.68525,11.75024 h 11.46915 11.47121 l -1.65144,-3.19334 c -0.90807,-1.75601 -4.89681,-12.53914 -8.8628,-23.96347 l -7.2093,-20.77219 3.7514,-3.01559 c 5.12553,-4.11899 8.69009,-11.83786 9.90865,-21.4584 1.76101,-13.90306 -1.33358,-25.95235 -8.4391,-32.85314 -6.39129,-6.20714 -10.17785,-7.01179 -35.31066,-7.50279 z m -355.94861,0.13641 1.22773,2.77789 c 1.96735,4.45535 2.33189,98.78948 0.40717,105.35534 l -1.44268,4.92332 11.14051,0.002 h 11.14051 l -0.25836,-24.25076 c -0.14137,-13.33801 -0.36656,-29.76476 -0.50019,-36.50326 -0.13363,-6.7385 -0.0166,-12.24829 0.25836,-12.24629 0.001,1.2e-4 0.005,0.002 0.006,0.002 0.29908,0.0829 1.74717,3.55215 3.24088,7.78182 1.51137,4.27968 7.63463,20.59264 13.6063,36.24903 l 10.85735,28.46514 10.64446,0.28523 10.64446,0.28316 v -53.29049 c 0,-29.86967 0.40871,-54.7155 0.93009,-56.53344 l 0.9301,-3.24501 h -11.96519 -11.9652 l 1.28353,2.25083 c 1.4638,2.56271 2.54757,63.84102 1.10372,62.40753 -0.44967,-0.44645 -6.05669,-15.06534 -12.45918,-32.48523 l -11.6407,-31.67295 -13.5939,-0.27696 z m -39.9901,0.0558 0.73168,4.75176 c 1.29627,8.42459 0.88293,101.3373 -0.46711,104.99983 l -1.1988,3.24915 h 12.86843 12.86636 l -0.95284,-3.45584 c -1.18302,-4.28455 -0.74139,-105.318 0.47125,-107.79425 0.79302,-1.61937 -0.0813,-1.75065 -11.72957,-1.75065 z m 208.7926,0 c -11.0601,0 -11.98953,0.14362 -11.372,1.75065 1.12546,2.9288 3.26187,13.81275 12.12435,61.75026 4.67736,25.3 8.74023,46.78668 9.02815,47.74918 0.45709,1.52803 1.91083,1.75065 11.45675,1.75065 6.01294,0 10.93175,-0.28877 10.93175,-0.6428 0,-0.35404 2.92535,-16.50788 6.50035,-35.8956 3.575,-19.38771 6.53977,-35.63565 6.58717,-36.10641 0.0474,-0.47075 2.90864,14.21938 6.3598,32.64438 3.45117,18.425 6.60146,34.97873 7.00054,36.78435 l 0.72548,3.28222 10.62172,-0.28317 10.61966,-0.28316 0.73787,-3.55504 c 1.60169,-7.72841 18.84793,-106.7448 18.84793,-108.21177 0,-0.40267 -4.83737,-0.7334 -10.74987,-0.73374 h -10.74987 l 0.2935,4.7497 c 0.25104,4.04898 -9.17145,71.9634 -10.11534,72.9073 -0.18188,0.18187 -3.14607,-16.42869 -6.58716,-36.9125 -3.4411,-20.48381 -6.47586,-38.03135 -6.74218,-38.99385 -0.41909,-1.51461 -1.80087,-1.75065 -10.27862,-1.75065 h -9.79497 l -5.65086,34.75053 c -3.1072,19.1125 -5.94473,36.99619 -6.30607,39.74207 -0.36135,2.74588 -0.78783,4.54737 -0.9487,4.00149 -1.48178,-5.02824 -11.38468,-72.76692 -10.99996,-75.24288 l 0.50432,-3.25121 z m 267.31025,0 0.9301,3.24501 c 1.17784,4.10673 1.18711,100.93889 0.0103,106.0064 l -0.87016,3.74933 h 12.51086 12.51085 l -0.75441,-2.24877 c -0.41566,-1.2375 -0.95847,-8.79066 -1.20499,-16.78311 l -0.44852,-14.53227 3.73693,-6.26886 c 2.05439,-3.44871 4.07357,-5.91013 4.48721,-5.46898 0.41363,0.44116 4.48368,10.81447 9.04469,23.05197 l 8.29234,22.25002 h 11.77298 11.77297 l -1.88706,-3.24915 c -1.78316,-3.06944 -27.04519,-63.82374 -27.04519,-65.0428 0,-0.31453 3.52807,-6.56449 7.83969,-13.88947 4.31161,-7.32498 10.13695,-17.25563 12.9449,-22.06813 l 5.10521,-8.75119 h -11.7027 -11.70271 l -1.58323,4.40453 c -1.6699,4.6438 -20.04352,38.56558 -20.90034,38.58668 -0.81004,0.02 0.53867,-39.32458 1.41375,-41.24056 0.73813,-1.61611 -0.15985,-1.75065 -11.73784,-1.75065 z m -603.63999,16.02042 c 5.30038,0.0146 8.44921,1.73651 10.94416,5.98363 1.91684,3.26301 2.07646,5.37641 2.37898,31.49727 0.17836,15.4 0.0344,29.94128 -0.32037,32.31368 -0.39131,2.61663 -1.7312,5.52891 -3.40622,7.40358 -2.30737,2.5824 -3.65122,3.15515 -8.17867,3.49097 -6.56715,0.48711 -10.86134,-1.77071 -12.99864,-6.83932 -2.00887,-4.76407 -2.06445,-60.54368 -0.0661,-66.19613 1.66289,-4.70371 6.1753,-7.66868 11.6469,-7.65368 z m 478.36608,0.0723 c 2.50217,0.12068 4.98963,0.74407 6.77939,1.8354 5.40312,3.29463 5.85342,6.2586 5.85342,38.57221 0,32.3136 -0.4503,35.27964 -5.85342,38.57427 -3.57495,2.17988 -9.98702,2.49275 -13.5505,0.66141 -1.32198,-0.6794 -3.34659,-2.50561 -4.49961,-4.0573 -2.00548,-2.69892 -2.10838,-4.15188 -2.38312,-33.50007 -0.28331,-30.26498 -0.25559,-30.7383 2.00075,-35.17425 1.25796,-2.47313 3.4119,-5.05435 4.7869,-5.73561 1.84848,-0.91585 4.36402,-1.29674 6.86619,-1.17606 z m -568.86671,0.90737 h 7.43459 c 4.0892,0 8.61178,0.44766 10.04919,0.99417 6.9328,2.63584 7.53209,21.70229 0.84742,26.96045 -2.11906,1.66685 -4.05745,2.04621 -10.4667,2.04621 h -7.8645 v -14.99938 z m 158.99927,0 h 6.59956 c 8.05031,0 12.74828,2.00813 14.4806,6.19032 0.6953,1.6786 1.22993,6.7539 1.19053,11.28726 -0.0804,9.23956 -1.90868,14.18898 -5.53719,14.98078 -3.01115,0.65709 -15.80306,1.14816 -16.32012,0.62626 -0.22705,-0.22917 -0.41338,-7.7667 -0.41338,-16.75003 z m 478.00024,0 5.75008,0.006 c 13.63014,0.0132 16.25378,2.70714 16.24778,16.69423 -0.003,7.03794 -0.40576,9.45681 -2.00694,12.08301 -1.10109,1.80597 -2.56273,3.46787 -3.24708,3.69145 -0.68435,0.22358 -4.73052,0.55467 -8.99302,0.73581 l -7.75082,0.32864 v -16.76864 z m -636.99951,47.00096 7.75082,0.0145 c 12.50403,0.0238 16.42775,3.44738 17.07454,14.89397 0.46601,8.24721 -1.54937,13.37201 -6.21099,15.80341 -1.74382,0.90954 -6.52521,1.82818 -10.86355,2.08548 l -7.75082,0.45885 v -16.62809 z m 12.03134,98.99966 c -5.71338,0 -7.82094,1.09983 -4.53061,2.36245 1.20826,0.46365 1.49849,2.72754 1.49849,11.63863 0,8.91108 -0.29023,11.17292 -1.49849,11.63657 -0.825,0.31658 -1.50056,0.97839 -1.50056,1.46955 0,0.49115 2.54476,0.8929 5.655,0.8929 5.41512,0 5.58421,-0.078 3.99942,-1.8292 -0.91024,-1.00581 -1.65351,-3.48079 -1.65351,-5.49998 0,-3.50104 0.15578,-3.67079 3.36489,-3.67079 4.20326,0 8.27828,-3.10596 9.12323,-6.953 1.38232,-6.2937 -4.01839,-10.04713 -14.45786,-10.04713 z m 174.00072,0 c -8.30138,0 -11.26453,0.93004 -7.53173,2.36245 1.20947,0.46412 1.50056,2.7387 1.50056,11.74611 0,9.46644 -0.26769,11.3748 -1.75065,12.50052 -1.49194,1.13255 -0.23949,1.33291 8.49903,1.36001 5.6375,0.0175 10.25615,-0.30677 10.26415,-0.71927 0.008,-0.4125 0.31035,-1.85446 0.67174,-3.20574 l 0.65727,-2.45753 -2.80683,2.20743 c -3.07249,2.41682 -7.45369,2.88901 -9.33612,1.00658 -0.66,-0.66 -1.1988,-2.9098 -1.1988,-4.9998 0,-3.66378 0.12374,-3.801 3.44137,-3.801 1.89254,0 3.71737,0.45037 4.05729,1.00037 1.35004,2.18441 2.38558,0.79477 2.2343,-2.99905 -0.17432,-4.37132 -0.4565,-4.71598 -2.12269,-2.57327 -0.61063,0.78527 -2.46103,1.57342 -4.11103,1.75065 -2.9763,0.31968 -2.99905,0.28313 -2.99905,-4.67736 0,-4.93918 0.0393,-5.00579 3.34215,-5.32223 2.0747,-0.19877 4.02931,0.30178 5.15068,1.31661 2.16394,1.95834 3.09859,0.86798 1.9222,-2.24464 -0.79537,-2.1045 -1.43572,-2.25084 -9.88384,-2.25084 z m 33.40086,0 c -5.63454,0 -9.02769,1.60926 -10.4047,4.93366 -1.66365,4.01642 -0.0279,6.99927 6.05598,11.0351 5.81502,3.85746 7.19253,6.62602 4.33425,8.71605 -2.76106,2.01894 -5.53208,1.57944 -8.60237,-1.36208 -3.27325,-3.13598 -4.26803,-2.65655 -3.33182,1.60597 0.66519,3.0286 0.7612,3.07179 6.84552,3.04039 6.69355,-0.0345 9.04403,-1.1912 10.56592,-5.19408 1.56485,-4.11586 0.19873,-6.65348 -5.56199,-10.33856 -5.83416,-3.73208 -7.2297,-5.79087 -5.63639,-8.32128 1.66384,-2.64241 4.31823,-2.47489 7.39118,0.46918 3.38564,3.24364 3.84664,3.05143 3.17887,-1.33314 -0.47081,-3.09133 -0.70687,-3.25121 -4.83445,-3.25121 z m 49.06785,0 c -5.88318,0 -6.34211,0.30293 -4.00149,2.64355 1.13929,1.13929 1.50056,3.97797 1.50056,11.80605 0,9.55662 -0.16249,10.42101 -2.24877,11.87632 -2.15054,1.50015 -1.97432,1.5724 3.99942,1.6225 3.53497,0.0297 6.25026,-0.38311 6.25026,-0.9487 0,-0.55 -0.67555,-1.00037 -1.50055,-1.00037 -1.24661,0 -1.50056,-1.94769 -1.50056,-11.53115 0,-9.32763 0.28723,-11.64015 1.50056,-12.10575 3.18773,-1.22324 1.26018,-2.36245 -3.99943,-2.36245 z m 71.53076,0 c -5.71338,0 -7.82094,1.09983 -4.53061,2.36245 2.2972,0.88152 2.16461,21.24529 -0.15502,23.80845 -1.58478,1.75114 -1.41568,1.8292 3.99943,1.8292 5.39158,0 7.37303,-1.12736 4.15444,-2.36245 -0.99009,-0.37993 -1.50056,-1.94613 -1.50056,-4.60709 0,-3.95718 0.0667,-4.03043 3.57777,-4.03043 4.15692,0 9.42293,-4.4643 9.42293,-7.98851 0,-5.83009 -5.2844,-9.01162 -14.96838,-9.01162 z m 110.40267,0 c -5.68629,0 -9.11702,1.65126 -10.26415,4.94193 -1.3949,4.00142 0.61581,7.6037 6.31847,11.32033 5.19904,3.38838 6.51274,5.82559 4.47067,8.28614 -1.88797,2.27487 -6.07652,1.71306 -9.1439,-1.22567 -3.27325,-3.13598 -4.26803,-2.65655 -3.33182,1.60597 0.65911,3.00091 0.8102,3.0714 6.51482,3.0714 7.36321,0 8.71043,-0.5368 10.61966,-4.22885 2.35099,-4.54631 1.06318,-7.35986 -5.20235,-11.36787 -5.96819,-3.8178 -7.30822,-5.76115 -5.71701,-8.28821 1.66384,-2.64241 4.31617,-2.47489 7.38912,0.46918 3.38564,3.24364 3.8487,3.05143 3.18093,-1.33314 -0.47081,-3.09133 -0.70686,-3.25121 -4.83444,-3.25121 z m 20.06532,0 c -5.2596,0 -7.18715,1.13921 -3.99942,2.36245 2.2972,0.88152 2.16461,21.24529 -0.15502,23.80845 -1.58528,1.75174 -1.41083,1.8292 4.15444,1.8292 5.56527,0 5.74178,-0.0775 4.1565,-1.8292 -2.31962,-2.56316 -2.45221,-22.92693 -0.15501,-23.80845 3.18773,-1.22324 1.25812,-2.36245 -4.00149,-2.36245 z m 17.9633,0 c -3.62122,0 -4.63274,1.33751 -1.82713,2.41413 1.43627,0.55114 1.54723,1.93063 0.91976,11.35546 -0.50321,7.55848 -1.18005,11.24705 -2.2901,12.47985 -1.47898,1.64251 -1.27988,1.75066 3.23467,1.75066 4.59649,0 4.7356,-0.0816 3.15407,-1.8292 -1.24367,-1.37424 -1.65351,-3.77687 -1.65351,-9.66682 0,-4.31086 0.33015,-7.50747 0.73374,-7.10388 0.40359,0.40359 2.37183,4.55447 4.37353,9.22244 2.00169,4.66797 3.97882,8.4877 4.3942,8.4887 0.41538,10e-4 2.60894,-4.18653 4.87578,-9.30512 l 4.12137,-9.30512 0.2935,8.34608 c 0.1852,5.2937 -0.13373,8.85965 -0.87223,9.7495 -0.97431,1.17396 -0.30255,1.40342 4.1131,1.40342 5.04934,0 5.20465,-0.0795 3.62119,-1.8292 -2.31962,-2.56316 -2.45222,-22.92693 -0.15502,-23.80845 2.72172,-1.04442 1.56206,-2.36245 -2.07929,-2.36245 -3.53629,0 -3.62958,0.10776 -7.69087,8.99922 -2.26097,4.95 -4.40895,9.00129 -4.77451,9.00129 -0.36556,0 -2.54697,-4.05129 -4.84684,-9.00129 -4.08682,-8.79607 -4.26044,-8.99922 -7.64541,-8.99922 z m 71.47908,0 c -5.32203,0 -5.75328,0.33163 -3.44136,2.64355 1.14213,1.14213 1.50056,3.9946 1.50056,11.959 0,8.37525 -0.29951,10.57422 -1.50056,11.0351 -0.825,0.31658 -1.50056,0.97839 -1.50056,1.46955 0,0.49115 4.67314,0.8929 10.38403,0.8929 10.28154,0 10.38827,-0.0255 10.86148,-2.50094 0.56196,-2.93967 0.4271,-2.98547 -2.70348,-0.93423 -1.42108,0.93113 -3.9384,1.43785 -6.21513,1.25047 l -3.8258,-0.31624 -0.28316,-11.26865 c -0.23504,-9.3614 -0.0244,-11.36674 1.24426,-11.85359 2.86282,-1.09856 0.43215,-2.37692 -4.52028,-2.37692 z m 242.68952,0 c -3.2857,0 -3.46087,0.21879 -7.24857,8.98475 -2.13525,4.94165 -4.23002,8.99122 -4.65463,8.99922 -0.42461,0.008 -2.69368,-3.92216 -5.04113,-8.73466 -3.93123,-8.05941 -4.52144,-8.77466 -7.47799,-9.06329 -3.09218,-0.30187 -4.5252,1.20867 -1.9594,2.06482 1.96362,0.65521 1.10657,21.69351 -0.97764,23.9986 -1.48595,1.64342 -1.28858,1.75066 3.22847,1.75066 4.64217,0 4.75063,-0.0646 3.11066,-1.87674 -1.35668,-1.4991 -1.64042,-3.45355 -1.40548,-9.68955 l 0.2935,-7.81076 4.00149,9.67095 c 2.2,5.31835 4.22461,9.66776 4.49961,9.66476 0.275,-0.003 2.59866,-4.38349 5.16308,-9.73296 l 4.66289,-9.7247 0.0868,8.38949 c 0.0717,6.88484 -0.22775,8.62834 -1.66384,9.71849 -1.51885,1.15298 -0.96854,1.33241 4.1565,1.36001 5.65811,0.0305 5.83532,-0.0459 4.24952,-1.79819 -1.32113,-1.45984 -1.65558,-3.9691 -1.65558,-12.44058 0,-5.99614 0.43536,-10.88019 1.00038,-11.22939 2.05462,-1.26983 0.88861,-2.50093 -2.36865,-2.50093 z m -105.53309,0.002 c -1.13145,0.002 -2.89181,3.54348 -6.03117,12.13262 -2.43828,6.671 -5.33542,12.9694 -6.43835,13.99694 -1.97755,1.8424 -1.93723,1.86782 2.93291,1.78992 2.71621,-0.0434 4.37483,-0.30545 3.68733,-0.58286 -1.32152,-0.53325 -1.66103,-4.10319 -0.64281,-6.75664 0.42241,-1.10078 1.90719,-1.58117 4.87992,-1.58117 3.8038,0 4.40758,0.32891 5.51445,3.00112 0.99105,2.3923 0.98975,3.30453 -0.002,4.4996 -1.0808,1.30228 -0.49527,1.4985 4.45207,1.4985 h 5.69427 l -1.95941,-2.49267 c -1.07812,-1.37061 -3.87992,-7.66962 -6.22545,-13.99901 -3.00233,-8.10179 -4.73684,-11.50835 -5.86169,-11.50635 z m -169.13734,0.006 c -1.19774,0.0818 -1.96147,0.26492 -1.96147,0.56426 0,0.31428 0.67556,1.24602 1.50056,2.07102 1.14213,1.14213 1.50055,3.9946 1.50055,11.959 0,8.37525 -0.2995,10.57422 -1.50055,11.0351 -0.825,0.31658 -1.50056,0.97839 -1.50056,1.46955 0,0.49115 2.47498,0.8929 5.49998,0.8929 5.25961,0 7.18922,-1.1392 4.00149,-2.36245 -0.99009,-0.37993 -1.50056,-1.94613 -1.50056,-4.60709 0,-3.8885 0.11675,-4.03043 3.27808,-4.03043 9.56681,0 12.84377,-11.96258 4.25985,-15.54917 -2.48635,-1.03887 -9.98415,-1.68816 -13.57737,-1.44269 z m -404.74364,0.006 c -9.04985,-0.0289 -15.21566,4.90727 -15.97288,12.78782 -0.57152,5.94793 1.49026,10.45579 6.0539,13.2384 2.23766,1.36438 5.01571,1.95227 9.22864,1.95527 7.92358,0.005 10.47291,-1.71822 10.47291,-7.08321 0,-2.61056 0.51537,-4.17322 1.50056,-4.55128 3.18773,-1.22324 1.26019,-2.36039 -3.99942,-2.36039 -5.81299,0 -6.56639,0.50062 -3.79687,2.52574 1.41589,1.03532 1.54306,1.89903 0.75028,5.10934 -0.86209,3.49092 -1.29772,3.8929 -4.50788,4.1627 -7.06136,0.59347 -11.9001,-6.7771 -9.97892,-15.19987 1.13895,-4.99335 3.69195,-7.50768 8.39982,-8.27167 3.29964,-0.53545 4.16019,-0.20901 7.1907,2.72828 l 3.44136,3.33596 v -3.57778 c 0,-4.04218 -1.34186,-4.77561 -8.7822,-4.79931 z m 465.31991,0.006 c -2.77929,0.0259 -5.65454,0.36028 -6.03737,0.97971 -0.33992,0.55 0.0314,1.00037 0.82468,1.00037 2.015,0 2.64635,3.13094 2.66215,13.20946 0.012,7.68336 -0.24399,8.95353 -2.17436,10.75194 l -2.18883,2.03795 6.43835,-0.031 c 5.56883,-0.0275 6.2013,-0.21102 4.68769,-1.36001 -1.48295,-1.12572 -1.74858,-3.03408 -1.74858,-12.50052 0,-9.00741 0.28903,-11.28199 1.49849,-11.74611 0.825,-0.31658 1.50056,-0.9784 1.50056,-1.46955 0,-0.61587 -2.68349,-0.89808 -5.46278,-0.87223 z m 53.99944,0 c -2.77929,0.0259 -5.65454,0.36028 -6.03737,0.97971 -0.33992,0.55 0.0364,1.00037 0.83502,1.00037 2.18475,0 2.66628,2.25671 2.66628,12.50879 0,6.97492 -0.3812,9.72765 -1.50056,10.84701 -0.825,0.825 -1.50056,1.7588 -1.50056,2.07309 0,0.31428 2.58758,0.55695 5.75008,0.53945 4.99613,-0.0276 5.52205,-0.20574 4.00149,-1.36001 -1.48295,-1.12572 -1.75065,-3.03408 -1.75065,-12.50052 0,-9.00741 0.29109,-11.28199 1.50055,-11.74611 0.825,-0.31658 1.4985,-0.9784 1.4985,-1.46955 0,-0.61587 -2.68349,-0.89808 -5.46278,-0.87223 z m -600.90137,0.0145 c -3.06479,-0.10287 -5.63433,0.0542 -5.63433,0.53739 0,0.31428 0.6735,1.24602 1.4985,2.07102 1.1311,1.13111 1.50055,3.9311 1.50055,11.38854 0,8.88588 -0.22239,10.09805 -2.18883,11.93006 l -2.18883,2.03795 6.43835,-0.031 c 5.56883,-0.0275 6.20337,-0.21102 4.68976,-1.36001 -1.22434,-0.9294 -1.75065,-2.72308 -1.75065,-5.96916 0,-5.54165 2.066,-6.30919 4.05523,-1.50676 2.42167,5.84643 5.75786,8.8678 9.78463,8.8628 l 3.66046,-0.006 -2.66835,-2.24464 c -1.46792,-1.23477 -3.56087,-4.05066 -4.65049,-6.25852 -1.9485,-3.94808 -1.94934,-4.05409 -0.0806,-6.36188 3.79188,-4.68278 1.94195,-10.46259 -3.86301,-12.07474 -1.97908,-0.54963 -5.53759,-0.91197 -8.60238,-1.01484 z m 255.60135,0.0207 c -2.28917,0.0104 -4.65745,0.52493 -6.953,1.61424 -4.71904,2.23934 -7.27457,6.66935 -7.27957,12.61626 -0.004,5.48528 1.97474,9.12071 6.45281,11.85152 4.08124,2.48876 12.0493,2.46146 16.17751,-0.0558 3.95531,-2.41183 6.88381,-9.50666 5.95883,-14.4372 -1.33501,-7.11626 -7.48908,-11.62023 -14.35658,-11.58902 z m -214.66049,0.0331 c -7.03266,0.11604 -13.25079,5.07257 -14.2615,12.608 -0.68895,5.13654 1.9163,10.86361 6.10557,13.41822 4.1511,2.53138 12.06711,2.49487 16.28086,-0.0744 8.90905,-5.43216 8.32308,-19.95422 -0.98384,-24.37064 -2.36244,-1.12105 -4.79687,-1.61985 -7.14109,-1.58117 z m 533.03726,0.0434 c -3.0453,-0.051 -4.28427,0.45738 -6.61403,2.03589 -4.01692,2.72164 -6.9964,7.97312 -6.9964,12.33103 0,4.61514 3.08374,9.79565 6.9964,11.75024 3.87299,1.93478 12.06139,2.32292 15.06553,0.71515 1.19961,-0.64201 1.9233,-2.06562 1.9036,-3.74933 -0.0274,-2.33785 -0.20143,-2.49486 -1.25047,-1.12852 -3.35249,4.3665 -9.28075,5.05365 -13.35621,1.54809 -2.36937,-2.03805 -2.80862,-3.27723 -3.1706,-8.96201 -0.40231,-6.31815 -0.286,-6.73108 2.74069,-9.75776 2.7499,-2.7499 3.64169,-3.08387 6.86412,-2.56914 2.31151,0.36922 4.50065,1.5809 5.82449,3.22641 l 2.12269,2.63734 0.50845,-3.35455 c 0.28069,-1.84514 0.39271,-3.48815 0.24803,-3.65219 -0.14469,-0.16404 -3.35313,-0.5473 -7.13076,-0.85156 -1.52397,-0.12274 -2.74043,-0.2021 -3.75553,-0.21909 z m -217.25855,0.0269 c -2.96852,-0.087 -5.34338,0.0919 -5.32223,0.59113 0.0175,0.41255 0.69098,1.62347 1.49849,2.69109 2.11278,2.79334 2.04912,19.28735 -0.0868,22.33682 -1.55568,2.221 -1.55336,2.2227 4.24951,2.1909 5.04329,-0.0276 5.57516,-0.20622 4.05523,-1.36001 -1.22434,-0.9294 -1.74858,-2.72308 -1.74858,-5.96916 0,-5.54165 2.066,-6.30919 4.05523,-1.50676 2.42167,5.84643 5.75579,8.8678 9.78256,8.8628 l 3.66252,-0.006 -2.67041,-2.24464 c -1.46792,-1.23477 -3.55881,-4.05066 -4.64843,-6.25852 -1.9485,-3.94808 -1.9514,-4.05409 -0.0827,-6.36188 3.80803,-4.70271 1.91312,-10.5623 -3.86714,-11.95899 -2.34827,-0.56742 -5.90876,-0.91962 -8.87727,-1.00658 z m 350.36182,0.0289 c -1.61149,0.056 -2.63682,0.17323 -2.71382,0.3307 -10e-4,0.004 -0.002,0.009 -0.002,0.0124 v 0.002 c 0,0.33492 0.67349,1.28529 1.49849,2.11029 1.1311,1.13111 1.50056,3.9311 1.50056,11.38854 0,8.88588 -0.22239,10.09805 -2.18883,11.93006 l -2.18883,2.03795 h 10.57212 c 10.48268,0 10.5757,-0.0221 11.04956,-2.50094 0.56321,-2.94622 0.53445,-2.95264 -3.36075,-0.93836 -1.65921,0.85801 -4.22449,1.41891 -5.70047,1.2484 -2.4401,-0.28188 -2.70951,-0.74074 -2.98665,-5.05974 l -0.3059,-4.7497 h 3.55504 c 1.95514,0 3.55505,0.45037 3.55505,1.00037 0,0.55 0.45037,1.00038 1.00037,1.00038 0.55,0 1.00037,-1.8692 1.00037,-4.15444 0,-3.88553 -0.11414,-4.05468 -1.75065,-2.59394 -0.9625,0.85913 -2.87452,1.71704 -4.24952,1.90566 -2.36204,0.32402 -2.51711,0.0535 -2.80269,-4.90678 l -0.30177,-5.24989 h 3.42897 c 1.8864,0 3.9906,0.67349 4.67529,1.49849 1.92996,2.32546 3.16345,1.77696 2.8151,-1.25046 l -0.31624,-2.74896 -9.24931,-0.2873 c -2.54375,-0.0791 -4.85686,-0.0831 -6.53342,-0.0248 z m -503.62549,0.0145 c -5.17112,0.32467 -8.09185,2.9386 -8.09185,7.37051 0,3.66294 0.89553,4.76048 7.75082,9.50147 4.27166,2.95419 5.27733,5.49941 3.05072,7.72602 -1.92211,1.92211 -5.41575,1.3952 -8.61891,-1.30007 -1.63409,-1.375 -3.25072,-2.50093 -3.59431,-2.50093 -0.59821,0 0.23435,4.68958 1.10991,6.25026 0.23141,0.4125 3.11481,0.75028 6.40735,0.75028 5.02264,0 6.38179,-0.39609 8.44116,-2.45546 4.63009,-4.63009 2.40722,-9.6671 -6.64297,-15.05726 -3.69304,-2.19951 -4.73997,-4.77364 -2.86264,-7.03568 1.7995,-2.16827 4.74261,-1.75981 7.55033,1.04791 3.24035,3.2403 3.59897,3.15651 3.22228,-0.75028 -0.30384,-3.1513 -0.46615,-3.2581 -5.36977,-3.5447 -0.82869,-0.0484 -1.61339,-0.0485 -2.35212,-0.002 z m 128.15928,0.0103 c -8.45344,-0.26276 -11.69455,0.63621 -7.75082,2.14956 1.20826,0.46365 1.50056,2.72754 1.50056,11.63863 0,8.91108 -0.2923,11.17292 -1.50056,11.63657 -0.825,0.31658 -1.50056,0.97839 -1.50056,1.46955 0,0.49115 4.50166,0.8929 10.00166,0.8929 h 9.99959 v -3.03006 -3.03005 l -2.85437,2.11029 c -1.7746,1.31202 -3.94995,1.98504 -5.75007,1.77959 -2.68991,-0.307 -2.91846,-0.66771 -3.20161,-5.08041 l -0.30383,-4.7497 h 3.35455 c 1.84514,0 3.89542,0.54086 4.55542,1.20086 0.93334,0.93333 1.19879,0.23108 1.19879,-3.15613 0,-4.076 -0.11068,-4.25433 -1.74858,-2.79236 -0.9625,0.85913 -2.87659,1.71704 -4.25159,1.90566 -2.36204,0.32402 -2.51505,0.0535 -2.80063,-4.90678 l -0.30383,-5.24989 h 3.43103 c 1.8864,0 3.99061,0.67349 4.6753,1.49849 1.92996,2.32546 3.16344,1.77902 2.81509,-1.2484 l -0.31623,-2.75102 z m -226.99359,0.0889 c -1.37058,0.0742 -2.25704,0.25974 -2.25704,0.57873 0,0.49857 0.67556,1.16537 1.50056,1.48195 1.20947,0.46412 1.50056,2.7387 1.50056,11.74611 0,9.46644 -0.26769,11.3748 -1.75065,12.50052 -1.51885,1.15298 -0.9706,1.33241 4.15444,1.36001 5.65811,0.0305 5.83531,-0.0459 4.24951,-1.79819 -0.9832,-1.08643 -1.6535,-3.52209 -1.6535,-6.00016 0,-5.80006 2.30982,-5.46508 5.48138,0.79368 2.72892,5.38527 4.8733,7.03568 9.13976,7.03568 h 2.75309 l -2.5216,-2.74896 c -1.38645,-1.5125 -3.46303,-4.41072 -4.61535,-6.43835 -1.86635,-3.28403 -1.92782,-3.82508 -0.56219,-4.95846 3.94474,-3.27384 3.51499,-9.61224 -0.80816,-11.92592 -2.02335,-1.08287 -10.49907,-1.84925 -14.61081,-1.62664 z m 508.74103,0.19842 0.002,3.24914 c 6.1e-4,3.3677 1.35633,4.37254 2.36245,1.75065 0.36128,-0.9415 1.89038,-1.50055 4.1069,-1.50055 h 3.53024 v 10.17114 c 0,8.06114 -0.34186,10.55097 -1.65351,12.00033 -1.58579,1.75233 -1.4086,1.82869 4.24951,1.79819 5.12505,-0.0276 5.6733,-0.20703 4.15444,-1.36001 -1.47378,-1.11876 -1.75065,-3.00896 -1.75065,-11.96933 v -10.64032 h 2.87917 c 1.58265,0 3.43668,0.67555 4.12137,1.50055 1.99108,2.3991 3.15128,1.74527 2.81303,-1.5853 l -0.3121,-3.08586 -12.25043,-0.16328 z m 59.0013,0 v 3.40416 c 0,3.28914 0.0653,3.34732 1.91187,1.67624 1.10629,-1.00118 3.06156,-1.59354 4.64016,-1.40548 l 2.72828,0.3245 -0.18188,10.49978 c -0.14492,8.441 -0.50267,10.74536 -1.82919,11.75024 -1.3737,1.04062 -0.57119,1.24596 4.79103,1.21946 5.57097,-0.0275 6.20336,-0.21104 4.68977,-1.36001 -1.47378,-1.11876 -1.74859,-3.00896 -1.74859,-11.96933 v -10.64032 h 2.67042 c 1.46919,0 3.4938,0.74533 4.49961,1.65557 1.73764,1.57254 1.82919,1.48471 1.82919,-1.75065 v -3.40416 h -12.00034 z m -417.90969,1.50056 c 3.45918,0 6.82176,2.29235 8.47629,5.77901 2.28116,4.8072 1.50727,12.45091 -1.59563,15.7538 -6.48346,6.90132 -16.45292,-2.10721 -14.40619,-13.01725 0.73388,-3.91191 4.80213,-8.51556 7.52553,-8.51556 z m -213.57951,0.0909 c 4.75841,-0.1783 8.48176,5.13544 8.48663,13.20326 0.003,4.82276 -0.40874,6.20843 -2.45132,8.25101 -6.18306,6.18306 -14.5655,0.56099 -14.5302,-9.74536 0.018,-5.25736 1.68819,-8.77636 5.068,-10.6734 1.17548,-0.65978 2.3288,-0.99436 3.42689,-1.03551 z m -66.21059,0.90943 c 3.18133,0 4.70009,1.82278 4.70009,5.6426 0,2.21792 -0.70205,3.73476 -2.2219,4.7993 -3.97279,2.78265 -4.77657,1.92257 -4.77657,-5.10934 0,-4.89855 0.18588,-5.33256 2.29838,-5.33256 z m 29.64326,0 c 2.00088,0 5.05767,3.45681 5.05767,5.72114 0,0.70262 -0.90075,2.17808 -2.00075,3.27808 -3.59828,3.59828 -4.99979,2.61783 -4.99979,-3.49924 0,-4.77984 0.25402,-5.49998 1.94287,-5.49998 z m 108.5218,0 c 4.28698,0 6.10433,6.27041 2.70762,9.34439 -3.64793,3.30134 -5.17134,2.16929 -5.17134,-3.84441 0,-5.17907 0.14273,-5.49998 2.46372,-5.49998 z m 189.83513,0 c 1.265,0 2.8413,0.53879 3.5013,1.19879 1.5761,1.57609 1.5409,7.28949 -0.0517,8.52177 -1.85952,1.43884 -4.47165,2.22299 -5.15068,1.54396 -0.32877,-0.32877 -0.59939,-2.99863 -0.59939,-5.93196 0,-4.89855 0.18794,-5.33256 2.30044,-5.33256 z m 58.64373,0 c 2.00088,0 5.05767,3.45681 5.05767,5.72114 0,0.70262 -0.90075,2.17808 -2.00075,3.27808 -3.59828,3.59828 -4.99979,2.61783 -4.99979,-3.49924 0,-4.77984 0.25402,-5.49998 1.94287,-5.49998 z m 133.35749,0 c 1.265,0 2.83924,0.53879 3.49924,1.19879 1.56527,1.56526 1.53784,5.9997 -0.0496,7.96991 -1.45512,1.80597 -4.28957,2.95693 -5.15274,2.09376 -0.32877,-0.32877 -0.59733,-2.99657 -0.59733,-5.9299 0,-4.89855 0.18794,-5.33256 2.30044,-5.33256 z m 159.40438,4.49961 1.64731,3.87128 c 0.90587,2.12967 1.64731,4.04168 1.64731,4.24951 0,0.20783 -1.34906,0.37824 -2.99906,0.37824 -3.31696,0 -3.59029,-0.9388 -1.60183,-5.49998 z"
       transform="matrix(0.25002083,0,0,0.25002083,-34.273017,65.142351)" /><ellipse
       style="fill:#000000;stroke-width:0.293187"
       id="path75"
       cx="105.00005"
       cy="157.44298"
       rx="1.0002834"
       ry="1.0813874" /></g></svg>
